# xmcd
# 
# Track frame offsets:
#     150
#     16550
#     28752
#     45692
#     64037
#     87432
#     103867
#     120272
#     136075
#     158957
# 
# Disc length: 2472
# 
# Revision: 4
# Processed by: cddbd v1.5.2PL0 Copyright (c) Steve Scherf et al.
# Submitted via: fre:ac v1.0.31
# 
DISCID=7509a60a
DTITLE=Maria McKee - You Gotta Sin to Get Saved
DYEAR=1993
DGENRE=Rock
TTITLE0=I'm Gonna Soothe You
TTITLE1=My Lonely Sad Eyes
TTITLE2=My Girlhood Among the Outlaws
TTITLE3=Only Once
TTITLE4=I Forgive You
TTITLE5=I Can't Make It Alone
TTITLE6=Precious Time
TTITLE7=The Way Young Lovers Do
TTITLE8=Why Wasn't I More Grateful (When Life Was Sweet)
TTITLE9=You Gotta Sin to Get Saved
EXTD=YEAR: 1993
EXTT0=
EXTT1=
EXTT2=
EXTT3=
EXTT4=
EXTT5=
EXTT6=
EXTT7=
EXTT8=
EXTT9=
PLAYORDER=
